<svg width="20" height="15" viewBox="0 0 20 15" fill="none" xmlns="http://www.w3.org/2000/svg">
<path d="M8.08 6.645C8.13 6.3975 8.24 6.18 8.38 5.9925C8.52 5.805 8.72 5.6475 8.97 5.5275C9.21 5.415 9.51 5.3625 9.88 5.355C10.11 5.3625 10.32 5.3925 10.51 5.4525C10.71 5.52 10.89 5.61 11.03 5.7225C11.17 5.835 11.28 5.97 11.37 6.12C11.46 6.27 11.5 6.435 11.51 6.6H13.3C13.28 6.2475 13.19 5.925 13.02 5.6325C12.85 5.34 12.62 5.085 12.32 4.875C12.02 4.665 11.66 4.5 11.24 4.38C10.82 4.26 10.36 4.2075 9.85 4.2075C9.2 4.2075 8.63 4.29 8.15 4.4625C7.67 4.635 7.27 4.86 6.95 5.1525C6.63 5.445 6.39 5.7825 6.24 6.1725C6.09 6.5625 6 6.9675 6 7.4025V7.605C6 8.04 6.08 8.445 6.23 8.835C6.38 9.225 6.62 9.5625 6.94 9.8475C7.26 10.1325 7.66 10.365 8.14 10.53C8.62 10.695 9.19 10.785 9.84 10.785C10.31 10.785 10.75 10.725 11.16 10.6125C11.57 10.5 11.93 10.3425 12.24 10.14C12.55 9.9375 12.8 9.705 12.98 9.435C13.16 9.165 13.27 8.88 13.28 8.5725H11.49C11.48 8.73 11.43 8.8725 11.34 9.0075C11.25 9.1425 11.13 9.255 10.98 9.3525C10.83 9.45 10.66 9.525 10.46 9.5775C10.27 9.63 10.07 9.645 9.86 9.6525C9.5 9.645 9.2 9.5925 8.97 9.48C8.72 9.36 8.52 9.2025 8.38 9.015C8.24 8.8275 8.13 8.6025 8.08 8.355C8.03 8.1075 8 7.8525 8 7.605V7.4025C8 7.14 8.03 6.8925 8.08 6.645ZM10 0C4.48 0 0 3.36 0 7.5C0 11.64 4.48 15 10 15C15.52 15 20 11.64 20 7.5C20 3.36 15.52 0 10 0ZM10 13.5C5.59 13.5 2 10.8075 2 7.5C2 4.1925 5.59 1.5 10 1.5C14.41 1.5 18 4.1925 18 7.5C18 10.8075 14.41 13.5 10 13.5Z" fill="black" fill-opacity="0.66"/>
</svg>
