<svg width="19" height="20" viewBox="0 0 19 20" fill="none" xmlns="http://www.w3.org/2000/svg">
<path fill-rule="evenodd" clip-rule="evenodd" d="M5.58341 0.06C6.59645 0.0109091 6.91945 0 9.5 0C12.0805 0 12.4035 0.0118182 13.4157 0.06C14.4279 0.108182 15.1188 0.278182 15.7234 0.524545C16.3564 0.776364 16.9307 1.17 17.4057 1.67909C17.8894 2.17818 18.2625 2.78182 18.5008 3.44909C18.7357 4.08545 18.8964 4.81273 18.943 5.87636C18.9896 6.94455 19 7.28455 19 10C19 12.7164 18.9888 13.0564 18.943 14.1227C18.8972 15.1864 18.7357 15.9136 18.5008 16.55C18.2624 17.2174 17.8887 17.822 17.4057 18.3218C16.9307 18.8309 16.3564 19.2236 15.7234 19.4745C15.1188 19.7218 14.4279 19.8909 13.4175 19.94C12.4035 19.9891 12.0805 20 9.5 20C6.91945 20 6.59645 19.9882 5.58341 19.94C4.57295 19.8918 3.88205 19.7218 3.2775 19.4745C2.64352 19.2236 2.06912 18.8302 1.59427 18.3218C1.11096 17.8224 0.736954 17.2181 0.498318 16.5509C0.264273 15.9145 0.103636 15.1873 0.057 14.1236C0.0103636 13.0555 0 12.7155 0 10C0 7.28364 0.0112273 6.94364 0.057 5.87818C0.102773 4.81273 0.264273 4.08545 0.498318 3.44909C0.737306 2.78189 1.1116 2.17756 1.59514 1.67818C2.06931 1.16955 2.64314 0.775858 3.27664 0.524545C3.88118 0.278182 4.57209 0.109091 5.58255 0.06H5.58341ZM13.3389 1.86C12.337 1.81182 12.0365 1.80182 9.5 1.80182C6.9635 1.80182 6.66295 1.81182 5.66114 1.86C4.73445 1.90455 4.23182 2.06727 3.89673 2.20455C3.45368 2.38636 3.13673 2.60182 2.80423 2.95182C2.48904 3.27459 2.24647 3.66753 2.09432 4.10182C1.96391 4.45455 1.80932 4.98364 1.767 5.95909C1.72123 7.01364 1.71173 7.33 1.71173 10C1.71173 12.67 1.72123 12.9864 1.767 14.0409C1.80932 15.0164 1.96391 15.5455 2.09432 15.8982C2.24632 16.3318 2.489 16.7255 2.80423 17.0482C3.11082 17.38 3.48477 17.6355 3.89673 17.7955C4.23182 17.9327 4.73445 18.0955 5.66114 18.14C6.66295 18.1882 6.96264 18.1982 9.5 18.1982C12.0374 18.1982 12.337 18.1882 13.3389 18.14C14.2655 18.0955 14.7682 17.9327 15.1033 17.7955C15.5463 17.6136 15.8633 17.3982 16.1958 17.0482C16.511 16.7255 16.7537 16.3318 16.9057 15.8982C17.0361 15.5455 17.1907 15.0164 17.233 14.0409C17.2788 12.9864 17.2883 12.67 17.2883 10C17.2883 7.33 17.2788 7.01364 17.233 5.95909C17.1907 4.98364 17.0361 4.45455 16.9057 4.10182C16.733 3.63545 16.5283 3.30182 16.1958 2.95182C15.8891 2.62006 15.5158 2.36474 15.1033 2.20455C14.7682 2.06727 14.2655 1.90455 13.3389 1.86ZM8.28659 13.0827C8.96425 13.3797 9.71883 13.4197 10.4214 13.1961C11.1241 12.9725 11.7311 12.499 12.1389 11.8566C12.5468 11.2142 12.73 10.4426 12.6575 9.67373C12.5849 8.90485 12.2611 8.18634 11.7411 7.64091C11.4097 7.29225 11.009 7.02528 10.5677 6.85922C10.1265 6.69317 9.65582 6.63215 9.18952 6.68056C8.72321 6.72897 8.2729 6.88562 7.87101 7.13921C7.46912 7.3928 7.12564 7.73704 6.86531 8.14714C6.60497 8.55723 6.43425 9.02299 6.36545 9.51087C6.29664 9.99876 6.33145 10.4966 6.46738 10.9687C6.6033 11.4407 6.83696 11.8751 7.15153 12.2407C7.4661 12.6062 7.85376 12.8938 8.28659 13.0827ZM6.04718 6.36545C6.50061 5.88816 7.03891 5.50955 7.63135 5.25124C8.22378 4.99293 8.85875 4.85998 9.5 4.85998C10.1412 4.85998 10.7762 4.99293 11.3687 5.25124C11.9611 5.50955 12.4994 5.88816 12.9528 6.36545C13.4062 6.84275 13.7659 7.40938 14.0113 8.033C14.2567 8.65662 14.383 9.325 14.383 10C14.383 10.675 14.2567 11.3434 14.0113 11.967C13.7659 12.5906 13.4062 13.1573 12.9528 13.6345C12.0371 14.5985 10.7951 15.14 9.5 15.14C8.20494 15.14 6.96293 14.5985 6.04718 13.6345C5.13144 12.6706 4.61698 11.3632 4.61698 10C4.61698 8.63678 5.13144 7.3294 6.04718 6.36545ZM15.466 5.62545C15.5784 5.51388 15.6683 5.37971 15.7305 5.23089C15.7928 5.08206 15.826 4.92161 15.8282 4.75903C15.8305 4.59645 15.8017 4.43504 15.7436 4.28437C15.6856 4.1337 15.5994 3.99683 15.4901 3.88185C15.3809 3.76688 15.2509 3.67614 15.1078 3.61502C14.9646 3.55389 14.8113 3.52361 14.6568 3.52598C14.5024 3.52835 14.35 3.56332 14.2086 3.62881C14.0672 3.69431 13.9397 3.789 13.8337 3.90727C13.6276 4.1373 13.5147 4.44284 13.5191 4.75903C13.5235 5.07522 13.6448 5.37716 13.8572 5.60077C14.0696 5.82437 14.3565 5.95203 14.6568 5.95664C14.9572 5.96125 15.2475 5.84245 15.466 5.62545Z" fill="black"/>
</svg>
