<svg width="24" height="18" viewBox="0 0 24 18" fill="none" xmlns="http://www.w3.org/2000/svg">
<path d="M0 9C0 12.8422 3.211 16.1228 7.73 17.4135C7.62 16.7108 7.503 15.552 7.755 14.739C7.972 14.04 9.156 10.2855 9.156 10.2855C9.156 10.2855 8.799 9.74925 8.799 8.955C8.799 7.71 9.761 6.78 10.96 6.78C11.98 6.78 12.472 7.35375 12.472 8.0415C12.472 8.81025 11.819 9.95925 11.482 11.025C11.201 11.9167 12.079 12.6442 13.251 12.6442C15.374 12.6442 17.007 10.965 17.007 8.541C17.007 6.39525 14.951 4.896 12.016 4.896C8.618 4.896 6.623 6.80775 6.623 8.784C6.623 9.55425 7.018 10.3792 7.512 10.8285C7.55412 10.8624 7.58387 10.9039 7.59841 10.949C7.61295 10.994 7.61177 11.0411 7.595 11.0858C7.504 11.3693 7.302 11.9775 7.263 12.102C7.21 12.2655 7.09 12.3007 6.863 12.2213C5.371 11.7008 4.439 10.065 4.439 8.751C4.439 5.92425 7.176 3.32925 12.331 3.32925C16.475 3.32925 19.696 5.544 19.696 8.5035C19.696 11.5913 17.101 14.0767 13.497 14.0767C12.286 14.0767 11.149 13.6042 10.759 13.047C10.759 13.047 10.16 14.7585 10.015 15.177C9.733 15.99 8.951 17.019 8.466 17.6033C9.584 17.8612 10.77 18 12 18C18.627 18 24 13.9703 24 9C24 4.02975 18.627 0 12 0C5.373 0 0 4.02975 0 9Z" fill="black"/>
</svg>
