<svg width="23" height="14" viewBox="0 0 23 14" fill="none" xmlns="http://www.w3.org/2000/svg">
<path d="M23 1.66066C22.1542 1.94128 21.2456 2.1309 20.2904 2.2166C21.276 1.77503 22.0133 1.08003 22.3649 0.261302C21.4389 0.673137 20.4254 0.963023 19.3686 1.11836C18.6579 0.550172 17.7165 0.173569 16.6907 0.0470186C15.6648 -0.0795316 14.6119 0.0510517 13.6953 0.418495C12.7787 0.785938 12.0498 1.36968 11.6217 2.0791C11.1936 2.78852 11.0903 3.58391 11.3278 4.3418C9.4515 4.27126 7.61598 3.90611 5.94036 3.27003C4.26474 2.63395 2.78646 1.74117 1.60147 0.649633C1.19629 1.17297 0.963314 1.77973 0.963314 2.42594C0.962862 3.00767 1.15419 3.58049 1.52031 4.09358C1.88644 4.60667 2.41604 5.04416 3.06214 5.36724C2.31284 5.34938 1.58007 5.19778 0.924822 4.92506V4.97056C0.924746 5.78647 1.30167 6.57726 1.99164 7.20877C2.68161 7.84027 3.64213 8.27359 4.71021 8.43519C4.01511 8.57605 3.28635 8.5968 2.57897 8.49587C2.88032 9.19791 3.46732 9.81181 4.25779 10.2516C5.04827 10.6915 6.00265 10.9352 6.98732 10.9487C5.31578 11.9312 3.25145 12.4642 1.1264 12.4618C0.749968 12.4619 0.373855 12.4455 0 12.4125C2.15705 13.451 4.66801 14.0021 7.23245 14C15.9134 14 20.6591 8.61647 20.6591 3.9474C20.6591 3.79571 20.654 3.6425 20.6449 3.49081C21.568 2.99097 22.3648 2.37201 22.998 1.66293L23 1.66066Z" fill="black"/>
</svg>
